Motion_pu04
version=1
nRows=15
nColumns=43
inDegrees=yes
endheader
time	pelvis_tilt	pelvis_list	pelvis_rotation	pelvis_tx	pelvis_ty	pelvis_tz	hip_flexion_r	hip_adduction_r	hip_rotation_r	knee_angle_r	ankle_angle_r	subtalar_angle_r	mtp_angle_r	hip_flexion_l	hip_adduction_l	hip_rotation_l	knee_angle_l	ankle_angle_l	subtalar_angle_l	mtp_angle_l	lumbar_extension	lumbar_bending	lumbar_rotation	neck_flexion	neck_lateral_bending	neck_rotation	arm_flex_r	arm_add_r	arm_rot_r	elbow_flex_r	pro_sup_r	wrist_flex_r	wrist_dev_r	hand_finger_flex_r	arm_flex_l	arm_add_l	arm_rot_l	elbow_flex_l	pro_sup_l	wrist_flex_l	wrist_dev_l	hand_finger_flex_l
      1.56000000	     -6.62137404	    -11.98124327	    -90.91984015	     -0.09053401	      0.94209102	      0.23044867	    -12.05128455	      5.80593611	     -9.87775354	    -19.15779151	     16.13268239	      7.43465643	     16.17620135	     16.17037286	    -16.97316325	     -2.83638876	    -46.76555018	      5.59940625	      3.14041986	     24.55129627	    -28.26993516	      9.50930324	      4.72938131	    -19.31195729	     -9.31749156	      8.51249131	    -16.77485674	    -19.53409697	     -3.61483643	     71.85174160	    136.32566916	      4.74019892	      6.16920454	    -28.43288639	    -22.31765615	    -12.01876365	    -13.39770365	     68.90437470	    120.93707779	    -11.46114693	      8.18985367	     20.56084567
      1.56250000	     -6.64132440	    -11.95561896	    -90.89829529	     -0.09055932	      0.94203074	      0.23096118	    -12.07912227	      5.83350380	     -9.90612589	    -19.12239716	     16.15346780	      7.47366770	     16.17592408	     16.17987525	    -16.93918271	     -2.79738516	    -46.32969937	      5.58290619	      3.20770334	     24.55944783	    -28.24994472	      9.54841934	      4.75846501	    -19.32121728	     -9.31948566	      8.49389029	    -16.77795653	    -19.55993673	     -3.65186291	     71.89970363	    136.31770404	      4.71959475	      6.14848886	    -28.42638596	    -22.35818618	    -12.00695766	    -13.43107522	     68.91321046	    120.93204893	    -11.47726460	      8.19651427	     20.54748159
      1.56500000	     -6.64488503	    -11.94215305	    -90.86381141	     -0.09058533	      0.94198200	      0.23150480	    -12.11782420	      5.85092568	     -9.93734860	    -19.09281222	     16.16470446	      7.50996411	     16.17327083	     16.18155051	    -16.89681429	     -2.76165479	    -45.90043993	      5.56746101	      3.30777814	     24.57137490	    -28.22667050	      9.58228359	      4.78667966	    -19.35424606	     -9.33342392	      8.46233959	    -16.79256174	    -19.56141270	     -3.70079991	     71.93620636	    136.30621239	      4.69572310	      6.11964275	    -28.41908063	    -22.39237461	    -11.96993283	    -13.47351930	     68.91962667	    120.92993033	    -11.50306646	      8.20553784	     20.52798876
      1.56750000	     -6.64453743	    -11.93119757	    -90.82814215	     -0.09057547	      0.94193994	      0.23207525	    -12.16217874	      5.85920997	     -9.96986989	    -19.05808191	     16.17533108	      7.53951320	     16.16948681	     16.17315832	    -16.84802428	     -2.73279307	    -45.46236555	      5.55080038	      3.43684165	     24.58583927	    -28.20339387	      9.60986202	      4.80430987	    -19.40685657	     -9.34985600	      8.41936666	    -16.80915445	    -19.56523004	     -3.76731383	     71.97370754	    136.29164732	      4.66881276	      6.08141792	    -28.41187941	    -22.43150307	    -11.93643438	    -13.52258807	     68.92643924	    120.93273642	    -11.53645599	      8.21520137	     20.50352109
      1.57000000	     -6.63409945	    -11.92749979	    -90.78513829	     -0.09056240	      0.94189472	      0.23272057	    -12.22086366	      5.86290375	    -10.00033938	    -19.02324744	     16.18855569	      7.56361005	     16.16510519	     16.15067960	    -16.79561545	     -2.71324214	    -45.02312631	      5.53357395	      3.59611580	     24.60371371	    -28.17625135	      9.62900861	      4.81581388	    -19.46926725	     -9.36640161	      8.36846341	    -16.84153106	    -19.56245714	     -3.83911454	     71.99715955	    136.27404280	      4.64578349	      6.03515837	    -28.40281645	    -22.47190149	    -11.90720032	    -13.57373580	     68.93047385	    120.94117781	    -11.57660550	      8.22399175	     20.47367842
      1.57250000	     -6.61849669	    -11.93301427	    -90.74506778	     -0.09053220	      0.94185848	      0.23339110	    -12.29382606	      5.85561655	    -10.02988690	    -18.98299950	     16.20783340	      7.58267947	     16.16041345	     16.11636685	    -16.73985931	     -2.70273279	    -44.58757299	      5.52051846	      3.78887460	     24.62654370	    -28.15654949	      9.63676645	      4.81864516	    -19.54011416	     -9.37551839	      8.31255630	    -16.86494346	    -19.54847975	     -3.91611589	     72.01874477	    136.25246177	      4.62694139	      5.97933490	    -28.39197564	    -22.51400303	    -11.88048310	    -13.61422475	     68.92772726	    120.95587883	    -11.61988369	      8.22917284	     20.43892861
      1.57500000	     -6.59567430	    -11.94446530	    -90.70046403	     -0.09051611	      0.94183568	      0.23410630	    -12.38007294	      5.84503463	    -10.05577494	    -18.93907807	     16.23397103	      7.60037125	     16.15558326	     16.06374079	    -16.67910876	     -2.70099116	    -44.13968037	      5.51300776	      4.01881466	     24.65489115	    -28.14599888	      9.63350328	      4.81858391	    -19.60871891	     -9.37702702	      8.25897945	    -16.89970739	    -19.53485037	     -3.99239942	     72.02511151	    136.22716247	      4.61808080	      5.91834624	    -28.37799360	    -22.55084418	    -11.87008159	    -13.65005008	     68.92269194	    120.97536441	    -11.66662515	      8.22664778	     20.39929333
      1.57750000	     -6.59689016	    -11.97267319	    -90.71280294	     -0.09055400	      0.94171601	      0.23477321	    -12.45052146	      5.84070817	    -10.05616564	    -18.96664627	     16.23395147	      7.60029797	     16.15551575	     16.16185532	    -16.66239615	     -2.70580852	    -44.06422963	      5.51756843	      4.03146835	     24.65617649	    -28.15835538	      9.62892102	      4.84193651	    -19.61337168	     -9.37692313	      8.25727649	    -16.88857235	    -19.54794297	     -4.00470346	     72.02686557	    136.22601691	      4.61641525	      5.91627539	    -28.37775524	    -22.58148145	    -11.88251842	    -13.65872091	     68.90654241	    120.97688397	    -11.66895683	      8.22934629	     20.39743071
      1.58000000	     -6.59475896	    -11.92345521	    -90.65826214	     -0.09047990	      0.94165687	      0.23534529	    -12.47598345	      5.85952742	    -10.06048446	    -18.88148266	     16.28891582	      7.61728618	     16.15506379	     16.06066706	    -16.60370862	     -2.66490684	    -43.33957361	      5.49310672	      4.30409336	     24.67828156	    -28.11868467	      9.65076091	      4.83695135	    -19.65776238	     -9.35664014	      8.22734518	    -16.91244434	    -19.55193733	     -4.09316015	     72.07034012	    136.19657436	      4.61219813	      5.86434753	    -28.36780978	    -22.60928403	    -11.87659697	    -13.69219268	     68.93205696	    120.99075185	    -11.71560179	      8.20657484	     20.36194323
      1.58250000	     -6.56263656	    -11.94188865	    -90.62519395	     -0.09052170	      0.94162215	      0.23614587	    -12.57771215	      5.84005652	    -10.08313271	    -18.83732225	     16.33366673	      7.63454044	     16.15082058	     15.94290216	    -16.54595399	     -2.64932157	    -42.80596554	      5.49679607	      4.65107859	     24.71740577	    -28.09585678	      9.62141964	      4.82379974	    -19.69549984	     -9.33803616	      8.20368850	    -16.93655468	    -19.52085930	     -4.18627753	     72.05419212	    136.16017074	      4.62448222	      5.81110106	    -28.35139583	    -22.62912285	    -11.89762002	    -13.72850817	     68.87410292	    121.00950763	    -11.76313561	      8.17787208	     20.31760629
      1.58500000	     -6.56447388	    -11.96945441	    -90.63978118	     -0.09052439	      0.94148876	      0.23680875	    -12.64667983	      5.83318291	    -10.08421697	    -18.86331903	     16.33393932	      7.63448842	     16.15071846	     16.04134195	    -16.53179760	     -2.65496959	    -42.73283199	      5.50287503	      4.66590996	     24.71903512	    -28.11359255	      9.61485331	      4.84399776	    -19.70039750	     -9.33782690	      8.20378530	    -16.92528625	    -19.53322163	     -4.19736424	     72.05510451	    136.15893541	      4.62373683	      5.80960159	    -28.35111434	    -22.65402533	    -11.90946327	    -13.73469276	     68.85999277	    121.01044917	    -11.76467222	      8.17861480	     20.31603431
      1.58750000	     -6.04676567	    -13.31460540	    -90.88524081	     -0.09079526	      0.94411471	      0.23860277	    -14.55463552	      5.15472390	    -10.41758218	    -18.23998065	     16.35581046	      8.57489122	     15.93380675	     13.71160848	    -16.24204094	     -3.90420613	    -41.32844059	      5.71446619	      6.39020313	     25.30477965	    -29.50076282	      8.91351369	      4.96642144	    -19.70061341	     -9.27473857	      8.25247718	    -16.92574162	    -19.39667023	     -4.39952145	     72.05817816	    136.05672254	      4.70542592	      5.54759617	    -28.21831632	    -22.62530543	    -12.08049749	    -13.67026254	     68.79621723	    120.87120795	    -11.77858156	      7.88785038	     19.90993123
      1.59000000	     -6.04995580	    -13.33656854	    -90.89893628	     -0.09082013	      0.94397580	      0.23923182	    -14.61653688	      5.15033324	    -10.41881721	    -18.26472786	     16.35750434	      8.57351677	     15.93402951	     13.81136161	    -16.23407914	     -3.90205798	    -41.24548973	      5.72003345	      6.39387400	     25.30490345	    -29.51199490	      8.90654523	      4.99006987	    -19.70274486	     -9.27527027	      8.25263125	    -16.90931292	    -19.40726026	     -4.40788018	     72.06395346	    136.05657347	      4.70353628	      5.54763192	    -28.21873594	    -22.64910541	    -12.08919033	    -13.67672274	     68.78577893	    120.87118070	    -11.77858401	      7.89005401	     19.90991501
      1.59250000	     -6.08576971	    -13.21567207	    -90.87592635	     -0.09088143	      0.94377020	      0.23968237	    -14.54580731	      5.21220542	    -10.44674173	    -18.20024860	     16.42253250	      8.57551685	     15.93658278	     13.76944975	    -16.21172075	     -3.79827779	    -40.48348136	      5.70186886	      6.50800780	     25.30537992	    -29.42626701	      8.94882882	      5.01678227	    -19.67190221	     -9.27361772	      8.25997210	    -16.89136427	    -19.41300633	     -4.44393088	     72.09495616	    136.05250314	      4.69721578	      5.55256707	    -28.21817582	    -22.65575346	    -12.08860329	    -13.70786007	     68.78805241	    120.85496141	    -11.76255466	      7.88714845	     19.91597724
      1.59500000	     -6.10485635	    -13.17193419	    -90.85823753	     -0.09085597	      0.94365159	      0.24001522	    -14.53218272	      5.23481888	    -10.47133976	    -18.16961410	     16.45602843	      8.58061270	     15.93660873	     13.80842217	    -16.19278589	     -3.78489059	    -40.05470709	      5.69176314	      6.60331995	     25.30671486	    -29.41125398	      8.96987252	      5.01347049	    -19.69046681	     -9.27674498	      8.26938478	    -16.83200957	    -19.41609785	     -4.47903074	     72.13574199	    136.04920884	      4.68587581	      5.55060287	    -28.21933998	    -22.62716013	    -12.09081978	    -13.71584960	     68.77212858	    120.83912416	    -11.73621194	      7.88361508	     19.92574398
